<svg width="252" height="167" viewBox="0 0 252 167" fill="none" xmlns="http://www.w3.org/2000/svg">
<g clip-path="url(#clip0_142_371)">
<path d="M81.2 99.7V-0.299988" stroke="white" stroke-width="4" stroke-miterlimit="10"/>
<path d="M79.2 1.70001H179.2" stroke="white" stroke-width="4" stroke-miterlimit="10"/>
<path d="M179.2 99.7V-0.299988" stroke="white" stroke-width="4" stroke-miterlimit="10"/>
<path d="M111.1 99.7V-0.299988" stroke="white" stroke-width="4" stroke-miterlimit="10"/>
<path d="M79.5 97.7H109.5" stroke="white" stroke-width="4" stroke-miterlimit="10"/>
<path d="M0.334595 120.365H30.9205V163.461H26.5846V124.467H4.67053V163.461H0.334595V120.365ZM41.3795 120.365H49.9635C54.8854 120.365 58.2057 120.58 59.9244 121.01C62.3854 121.615 64.3971 122.865 65.9596 124.76C67.5221 126.635 68.3033 128.998 68.3033 131.849C68.3033 134.721 67.5416 137.094 66.0182 138.969C64.4948 140.824 62.3951 142.074 59.7194 142.719C57.7662 143.187 54.1139 143.422 48.7623 143.422H45.6862V163.461H41.3795V120.365ZM45.6862 124.555V139.203L52.9811 139.291C55.9303 139.291 58.0885 139.027 59.4557 138.5C60.8229 137.953 61.8971 137.084 62.6783 135.892C63.4596 134.682 63.8502 133.334 63.8502 131.849C63.8502 130.404 63.4596 129.086 62.6783 127.894C61.8971 126.683 60.8619 125.824 59.5729 125.316C58.3033 124.808 56.2135 124.555 53.3033 124.555H45.6862ZM97.4537 119.281C103.977 119.281 109.436 121.459 113.831 125.814C118.225 130.17 120.422 135.531 120.422 141.898C120.422 148.207 118.225 153.558 113.831 157.953C109.456 162.348 104.114 164.545 97.8053 164.545C91.4186 164.545 86.028 162.357 81.6334 157.982C77.2389 153.607 75.0416 148.314 75.0416 142.103C75.0416 137.963 76.0377 134.125 78.0299 130.59C80.0416 127.055 82.776 124.291 86.233 122.299C89.6901 120.287 93.4303 119.281 97.4537 119.281ZM97.6588 123.5C94.4752 123.5 91.4576 124.33 88.6061 125.99C85.7545 127.65 83.528 129.887 81.9264 132.699C80.3248 135.512 79.524 138.646 79.524 142.103C79.524 147.221 81.2916 151.547 84.8268 155.082C88.3815 158.598 92.6588 160.355 97.6588 160.355C100.999 160.355 104.085 159.545 106.917 157.924C109.768 156.303 111.985 154.086 113.567 151.273C115.169 148.461 115.969 145.336 115.969 141.898C115.969 138.48 115.169 135.394 113.567 132.641C111.985 129.867 109.749 127.65 106.858 125.99C103.967 124.33 100.901 123.5 97.6588 123.5ZM146.672 138.969V120.365H150.979V163.461H146.672V143.158H143.567C139.27 143.158 136.126 142.982 134.133 142.631C132.161 142.279 130.393 141.517 128.831 140.346C127.268 139.154 126.194 137.709 125.608 136.01C125.042 134.291 124.758 131.928 124.758 128.92V120.365H128.977V129.183C128.977 132.797 129.7 135.336 131.145 136.801C132.61 138.246 135.042 138.969 138.44 138.969L141.487 138.939L142.805 138.969H146.672ZM161.35 120.365H165.686V138.441H187.6V120.365H191.936V163.461H187.6V142.66H165.686V163.461H161.35V120.365ZM222.962 119.281C229.485 119.281 234.944 121.459 239.339 125.814C243.733 130.17 245.93 135.531 245.93 141.898C245.93 148.207 243.733 153.558 239.339 157.953C234.964 162.348 229.622 164.545 223.313 164.545C216.926 164.545 211.536 162.357 207.141 157.982C202.747 153.607 200.549 148.314 200.549 142.103C200.549 137.963 201.546 134.125 203.538 130.59C205.549 127.055 208.284 124.291 211.741 122.299C215.198 120.287 218.938 119.281 222.962 119.281ZM223.167 123.5C219.983 123.5 216.965 124.33 214.114 125.99C211.262 127.65 209.036 129.887 207.434 132.699C205.833 135.512 205.032 138.646 205.032 142.103C205.032 147.221 206.799 151.547 210.335 155.082C213.889 158.598 218.167 160.355 223.167 160.355C226.506 160.355 229.592 159.545 232.424 157.924C235.276 156.303 237.493 154.086 239.075 151.273C240.676 148.461 241.477 145.336 241.477 141.898C241.477 138.48 240.676 135.394 239.075 132.641C237.493 129.867 235.256 127.65 232.366 125.99C229.475 124.33 226.409 123.5 223.167 123.5Z" fill="white"/>
</g>
<defs>
<clipPath id="clip0_142_371">
<rect width="252" height="167" fill="white"/>
</clipPath>
</defs>
</svg>
